<svg xmlns="http://www.w3.org/2000/svg">
  <defs>

	
    <!-- playlist.svg → symbol -->
    <symbol id="playlist" viewBox="0 0 700 599">
      <path fill="#010101" opacity="1.000000" stroke="none" 
        d="M587.851807,47.125645 
          C609.870483,64.337654 620.976379,86.603699 620.986328,114.230865 
          C621.023010,216.387222 621.025024,318.543610 620.988953,420.699982 
          C620.974854,460.699066 594.872131,493.229797 556.043457,502.113464 
          C554.481201,502.470886 552.476929,504.448822 552.119995,506.002808 
          C543.187195,544.892029 510.719727,570.973816 470.738708,570.988464 
          C368.582336,571.025818 266.425964,571.033264 164.269592,570.986511 
          C117.057396,570.964905 81.029236,534.982056 81.011185,487.860504 
          C80.971909,385.370819 80.961105,282.881134 81.018631,180.391510 
          C81.040611,141.237381 107.610542,108.373352 145.864624,100.088776 
          C148.680313,99.478989 149.535156,98.296478 150.107254,95.632179 
          C158.176804,58.051533 191.248505,31.068632 229.629608,31.032759 
          C332.785797,30.936342 435.942108,30.984642 539.098389,31.013958 
          C556.960693,31.019035 573.121277,36.389378 587.851807,47.125645 
          M121.951134,428.500000 
          C121.951225,447.830017 121.943535,467.160034 121.953293,486.490051 
          C121.966599,512.845642 139.040039,530.023560 165.269028,530.026123 
          C266.584381,530.036072 367.899719,530.034546 469.215088,530.027283 
          C495.803497,530.025391 512.961487,512.885498 512.963196,486.331604 
          C512.969482,385.182892 512.969360,284.034180 512.963318,182.885468 
          C512.961792,156.312027 495.767670,139.029556 469.330475,139.027969 
          C368.348389,139.021927 267.364838,139.321121 166.385239,138.822464 
          C140.369247,138.694000 121.519264,158.060898 121.717102,183.545105 
          C122.348343,264.859100 121.951149,346.181091 121.951134,428.500000 
          M449.500000,71.951225 
          C377.686005,71.951233 305.871979,71.950630 234.057983,71.954002 
          C231.725525,71.954117 229.389282,71.916634 227.061218,72.029343 
          C211.742554,72.770988 196.358780,84.247475 192.375244,98.068375 
          C194.250397,98.068375 196.056885,98.068367 197.863373,98.068367 
          C288.172241,98.068420 378.481140,98.042587 468.789917,98.127296 
          C474.758209,98.132896 480.843475,98.383911 486.674652,99.533569 
          C526.869873,107.458321 553.870728,140.383362 553.900208,181.446518 
          C553.965332,272.255188 553.921082,363.063965 553.921326,453.872681 
          C553.921387,455.788605 553.921387,457.704529 553.921387,459.789551 
          C570.004272,453.929199 580.020081,438.971497 580.022827,421.176147 
          C580.038513,318.870544 580.044189,216.564911 580.019287,114.259300 
          C580.013245,89.420860 562.441223,71.983368 537.476440,71.958626 
          C508.484314,71.929901 479.492157,71.951477 449.500000,71.951225 
          z"/>
      <path fill="#FFFFFF" opacity="1.000000" stroke="none" 
        d="M121.951134,428.000000 
          C121.951149,346.181091 122.348343,264.859100 121.717102,183.545105 
          C121.519264,158.060898 140.369247,138.694000 166.385239,138.822464 
          C267.364838,139.321121 368.348389,139.021927 469.330475,139.027969 
          C495.767670,139.029556 512.961792,156.312027 512.963318,182.885468 
          C512.969360,284.034180 512.969482,385.182892 512.963196,486.331604 
          C512.961487,512.885498 495.803497,530.025391 469.215088,530.027283 
          C367.899719,530.034546 266.584381,530.036072 165.269028,530.026123 
          C139.040039,530.023560 121.966599,512.845642 121.953293,486.490051 
          C121.943535,467.160034 121.951225,447.830017 121.951134,428.000000 
          M217.894211,245.399521 
          C189.691681,277.956543 178.885147,315.529999 185.939270,358.011261 
          C198.151749,431.556946 272.236847,481.487915 344.856750,465.320374 
          C416.668518,449.332703 461.008057,383.341736 448.915222,310.449036 
          C438.865662,249.872650 382.975525,201.894684 321.573853,200.980865 
          C280.649658,200.371811 246.295044,215.024017 217.894211,245.399521 
          z"/>
      <path fill="#FFFFFF" opacity="1.000000" stroke="none" 
        d="M450.000000,71.951225 
          C479.492157,71.951477 508.484314,71.929901 537.476440,71.958626 
          C562.441223,71.983368 580.013245,89.420860 580.019287,114.259300 
          C580.044189,216.564911 580.038513,318.870544 580.022827,421.176147 
          C580.020081,438.971497 570.004272,453.929199 553.921387,459.789551 
          C553.921387,457.704529 553.921387,455.788605 553.921326,453.872681 
          C553.921082,363.063965 553.965332,272.255188 553.900208,181.446518 
          C553.870728,140.383362 526.869873,107.458321 486.674652,99.533569 
          C480.843475,98.383911 474.758209,98.132896 468.789917,98.127296 
          C378.481140,98.042587 288.172241,98.068420 197.863373,98.068367 
          C196.056885,98.068367 194.250397,98.068375 192.375244,98.068375 
          C196.358780,84.247475 211.742554,72.770988 227.061218,72.029343 
          C229.389282,71.916634 231.725525,71.954117 234.057983,71.954002 
          C305.871979,71.950630 377.686005,71.951233 450.000000,71.951225 
          z"/>
      <path fill="#010101" opacity="1.000000" stroke="none" 
        d="M218.123611,245.128967 
          C246.295044,215.024017 280.649658,200.371811 321.573853,200.980865 
          C382.975525,201.894684 438.865662,249.872650 448.915222,310.449036 
          C461.008057,383.341736 416.668518,449.332703 344.856750,465.320374 
          C272.236847,481.487915 198.151749,431.556946 185.939270,358.011261 
          C178.885147,315.529999 189.691681,277.956543 218.123611,245.128967 
          M262.616943,275.382996 
          C262.486633,277.538330 262.244232,279.693634 262.242767,281.849030 
          C262.219177,316.986420 262.217072,352.123840 262.229767,387.261230 
          C262.236359,405.495667 271.733917,410.942749 287.570648,401.801239 
          C318.069611,384.196075 348.562225,366.579834 379.053497,348.961334 
          C394.623840,339.964508 394.569122,329.120911 378.903595,320.072662 
          C348.552704,302.542236 318.196930,285.020264 287.836517,267.506317 
          C285.968750,266.428864 284.109467,265.295563 282.132874,264.454834 
          C272.392822,260.311951 265.168823,264.112946 262.616943,275.382996 
          z"/>
      <path fill="#FDFDFD" opacity="1.000000" stroke="none" 
        d="M262.699280,274.966553 
          C265.168823,264.112946 272.392822,260.311951 282.132874,264.454834 
          C284.109467,265.295563 285.968750,266.428864 287.836517,267.506317 
          C318.196930,285.020264 348.552704,302.542236 378.903595,320.072662 
          C394.569122,329.120911 394.623840,339.964508 379.053497,348.961334 
          C348.562225,366.579834 318.069611,384.196075 287.570648,401.801239 
          C271.733917,410.942749 262.236359,405.495667 262.229767,387.261230 
          C262.217072,352.123840 262.219177,316.986420 262.242767,281.849030 
          C262.244232,279.693634 262.486633,277.538330 262.699280,274.966553 
          z"/>
    </symbol>












    <!-- spotifylogo.svg → symbol -->
    <symbol id="spotifylogo" viewBox="0 0 2048 2048">
<path fill="#1ED760" opacity="1.000000" stroke="none" 
	d="
M626.120483,1965.957764 
	C602.065125,1954.718506 578.020691,1944.241821 554.832458,1932.126221 
	C531.100403,1919.726562 507.957092,1906.135010 485.031006,1892.279297 
	C468.539307,1882.312500 452.567383,1871.422363 436.839294,1860.272949 
	C420.548035,1848.724609 404.522308,1836.751099 388.947113,1824.257080 
	C372.789734,1811.296265 356.855011,1797.982788 341.647217,1783.931519 
	C320.792450,1764.662598 300.416016,1744.849243 280.416809,1724.691528 
	C268.709808,1712.891724 257.778748,1700.264771 247.142578,1687.474487 
	C234.262512,1671.985718 221.645203,1656.239868 209.674362,1640.043457 
	C194.833694,1619.964233 180.166290,1599.703735 166.548004,1578.789551 
	C153.371887,1558.554443 141.290237,1537.578979 129.357101,1516.571289 
	C120.702850,1501.336182 112.390839,1485.829102 105.142960,1469.890015 
	C92.923599,1443.017578 81.065697,1415.945190 70.204796,1388.502197 
	C61.876171,1367.457520 54.557266,1345.936157 48.166218,1324.221558 
	C40.357819,1297.691406 33.511169,1270.850464 27.164639,1243.927856 
	C22.937450,1225.995850 19.992451,1207.737671 17.060938,1189.530884 
	C14.301965,1172.395752 12.006274,1155.171021 10.075655,1137.921997 
	C8.318484,1122.222656 7.492338,1106.421631 5.961947,1090.693970 
	C2.557058,1055.702271 4.173855,1020.622559 4.172399,985.585388 
	C4.171728,969.445740 5.663144,953.275024 7.105643,937.174622 
	C8.700784,919.370605 10.366706,901.528076 13.169349,883.887756 
	C17.188379,858.591370 22.037445,833.418579 26.940575,808.272644 
	C35.448624,764.638794 48.152584,722.126953 63.204067,680.374756 
	C71.880699,656.306152 81.789093,632.638794 92.120834,609.222290 
	C101.359123,588.283997 111.365662,567.633667 122.085793,547.414429 
	C133.020264,526.790894 144.403534,506.306793 157.091858,486.735138 
	C175.378326,458.528381 194.744720,431.004639 214.215088,403.590607 
	C222.465164,391.974640 231.884537,381.147339 241.243317,370.370514 
	C255.204239,354.294220 269.392242,338.404633 283.842712,322.767395 
	C295.223419,310.452026 306.889252,298.373596 318.904449,286.678955 
	C329.672119,276.198578 340.787109,266.025726 352.291382,256.363159 
	C369.243286,242.125046 386.347198,228.024841 403.993134,214.667526 
	C423.677155,199.767471 443.587311,185.072662 464.230652,171.558899 
	C486.356140,157.074844 509.207397,143.643829 532.199585,130.557404 
	C549.711304,120.590302 567.607117,111.155159 585.927002,102.785477 
	C611.281189,91.202042 637.055237,80.496712 662.918701,70.084038 
	C678.754028,63.708736 694.896667,57.926552 711.250000,53.046215 
	C739.654785,44.569347 768.132507,36.170258 796.952637,29.304205 
	C820.597534,23.671108 844.738159,20.035595 868.747437,16.046423 
	C883.932129,13.523475 899.245911,11.654884 914.562134,10.079561 
	C931.256409,8.362516 947.998657,6.733726 964.758667,6.117743 
	C995.117432,5.001961 1025.502563,4.389125 1055.881470,4.134475 
	C1068.918579,4.025192 1081.993286,5.021288 1095.004639,6.082711 
	C1111.216797,7.405248 1127.412842,9.057366 1143.558350,11.035567 
	C1163.218018,13.444332 1183.009399,15.379456 1202.399414,19.246975 
	C1232.931396,25.336920 1263.290894,32.408909 1293.500732,39.955910 
	C1312.759155,44.767021 1331.745361,50.790714 1350.623779,56.972485 
	C1383.059937,67.593758 1414.756714,80.155365 1445.834106,94.316406 
	C1475.508911,107.838318 1504.738403,122.212067 1532.704956,138.997360 
	C1553.852783,151.690018 1575.139404,164.243408 1595.513062,178.109467 
	C1617.379272,192.991409 1638.546631,208.953400 1659.458008,225.167480 
	C1674.921509,237.157455 1689.578613,250.199554 1704.414917,262.981995 
	C1712.432617,269.889832 1720.173950,277.129333 1727.858154,284.411041 
	C1737.984863,294.007233 1748.269165,303.472382 1757.875610,313.574036 
	C1770.843262,327.210266 1783.487183,341.176422 1795.798218,355.409271 
	C1809.223633,370.930176 1822.481079,386.627289 1835.118164,402.789825 
	C1846.083740,416.814606 1856.655396,431.221863 1866.378174,446.127289 
	C1883.317261,472.095520 1900.650024,497.924072 1915.634644,525.018494 
	C1932.181396,554.937439 1946.741089,585.994019 1961.304810,616.960266 
	C1976.526367,649.325256 1988.323364,683.076782 1999.071045,717.172119 
	C2009.464722,750.144165 2018.528320,783.468933 2025.018066,817.453186 
	C2028.357056,834.937622 2031.868042,852.394836 2034.825684,869.944519 
	C2036.676147,880.925720 2037.748901,892.044128 2038.977661,903.122437 
	C2040.733154,918.950195 2042.367798,934.792114 2043.936279,950.639587 
	C2044.472412,956.056396 2044.889282,961.505249 2044.959106,966.944580 
	C2045.371216,999.048157 2046.040283,1031.155518 2045.841431,1063.256714 
	C2045.741333,1079.405884 2044.325562,1095.574341 2042.901001,1111.680664 
	C2041.281128,1129.996704 2039.449219,1148.318115 2036.893066,1166.522583 
	C2030.830200,1209.701904 2021.916260,1252.347412 2010.714722,1294.469604 
	C2005.525391,1313.984497 1999.647339,1333.379150 1992.849731,1352.387817 
	C1983.462402,1378.638062 1973.443726,1404.694702 1962.688477,1430.413086 
	C1954.245483,1450.602417 1945.084106,1470.584717 1934.787964,1489.883179 
	C1920.633545,1516.412842 1906.043457,1542.806030 1889.916382,1568.161499 
	C1872.227173,1595.973022 1852.873901,1622.750366 1833.649292,1649.550537 
	C1825.052368,1661.535034 1815.210571,1672.657104 1805.553467,1683.842285 
	C1794.335083,1696.836060 1782.964233,1709.719727 1771.178833,1722.197021 
	C1756.000854,1738.265991 1740.649780,1754.197021 1724.796021,1769.593262 
	C1712.864014,1781.181274 1700.282104,1792.142456 1687.519531,1802.821045 
	C1673.344604,1814.681519 1658.954956,1826.336548 1644.084717,1837.302246 
	C1622.545654,1853.185913 1600.900757,1868.995239 1578.534058,1883.666870 
	C1558.488647,1896.815918 1537.618164,1908.760010 1516.714600,1920.530273 
	C1500.025757,1929.927246 1483.091431,1939.046265 1465.637817,1946.891113 
	C1437.504272,1959.535767 1409.051270,1971.531860 1380.352295,1982.834595 
	C1361.093384,1990.419434 1341.366577,1996.980225 1321.504272,2002.827637 
	C1297.599609,2009.864990 1273.465820,2016.257080 1249.176025,2021.813599 
	C1227.890625,2026.682861 1206.303467,2030.315063 1184.753052,2033.915771 
	C1169.582275,2036.450562 1154.278320,2038.280640 1138.981201,2039.940430 
	C1123.618774,2041.607300 1108.212158,2043.050903 1092.786743,2043.907104 
	C1073.601196,2044.972046 1054.380981,2045.568481 1035.167480,2045.931030 
	C1017.796936,2046.258911 1000.395508,2046.517090 983.044067,2045.853882 
	C965.771057,2045.193726 948.538086,2043.411743 931.297485,2042.000732 
	C920.480713,2041.115234 909.641907,2040.317627 898.885376,2038.922607 
	C884.119507,2037.007568 869.378113,2034.819336 854.707581,2032.278564 
	C838.467407,2029.466431 822.261658,2026.391846 806.146729,2022.937988 
	C790.050598,2019.488159 773.905334,2016.051270 758.104675,2011.489502 
	C733.996460,2004.528931 709.992065,1997.110718 686.271118,1988.936401 
	C666.109436,1981.988647 646.410767,1973.697510 626.120483,1965.957764 
M1729.303955,906.929016 
	C1734.557739,902.427002 1740.201660,898.303406 1744.999634,893.358948 
	C1768.943359,868.684631 1777.254883,839.202942 1769.849609,805.796997 
	C1764.502441,781.674744 1751.573975,761.944885 1730.312500,748.872986 
	C1711.108276,737.065918 1691.599854,725.614075 1671.499878,715.438843 
	C1646.421265,702.743164 1620.905396,690.791931 1595.017944,679.844360 
	C1565.186768,667.229004 1534.943604,655.511414 1504.503784,644.435669 
	C1480.002197,635.520630 1455.131836,627.482422 1430.079346,620.253113 
	C1400.974731,611.854492 1371.544067,604.559387 1342.153931,597.187561 
	C1326.820435,593.341370 1311.295410,590.237732 1295.811035,587.019470 
	C1279.361328,583.600708 1262.887207,580.282959 1246.368286,577.220154 
	C1232.221313,574.597229 1218.020386,572.237061 1203.797852,570.057922 
	C1191.159180,568.121399 1178.456177,566.607056 1165.784912,564.881287 
	C1151.503784,562.936157 1137.247925,560.786804 1122.940796,559.059814 
	C1112.171143,557.759888 1101.330322,557.061646 1090.535400,555.957092 
	C1078.452881,554.720764 1066.401855,553.157104 1054.308472,552.050293 
	C1041.183105,550.848999 1028.034912,549.833801 1014.878052,549.054199 
	C995.243225,547.890686 975.594360,546.954590 955.946716,546.021423 
	C946.355896,545.565918 936.752808,545.011780 927.158081,545.061096 
	C890.555420,545.249084 853.951538,545.503418 817.353088,546.062256 
	C798.807373,546.345520 780.271912,547.318420 761.732788,548.005859 
	C753.628418,548.306396 745.523926,548.622375 737.424316,549.027832 
	C732.323730,549.283142 727.223999,549.628052 722.138000,550.088379 
	C708.217773,551.348145 694.307129,552.713989 680.388367,553.990662 
	C672.362183,554.726807 664.302551,555.160339 656.302490,556.106140 
	C643.946716,557.566895 631.631775,559.370178 619.294617,560.990784 
	C606.129395,562.720032 592.902771,564.063538 579.803467,566.193542 
	C561.602112,569.153137 543.451111,572.468506 525.357788,576.033752 
	C503.436035,580.353271 481.490234,584.640930 459.753082,589.780884 
	C439.307220,594.615417 419.213806,600.930298 398.793549,605.885864 
	C374.392303,611.807495 353.680176,623.163269 338.715149,643.792114 
	C323.248993,665.111755 316.984680,688.980835 321.233673,714.907288 
	C325.254639,739.442749 337.408691,759.693604 357.389221,774.844910 
	C383.143921,794.374634 411.597351,799.683960 442.706299,790.689392 
	C457.565002,786.393250 472.331268,781.656921 487.384369,778.180725 
	C512.971313,772.271973 538.701233,766.944946 564.468018,761.865112 
	C583.204346,758.171326 602.053040,754.982788 620.932495,752.098145 
	C638.742920,749.376770 656.629028,747.075989 674.537170,745.088867 
	C692.682312,743.075439 710.884033,741.535400 729.082031,740.045837 
	C743.875671,738.834961 758.689880,737.788391 773.514221,737.062256 
	C791.879211,736.162720 810.259949,735.499878 828.641724,735.058411 
	C841.299866,734.754395 853.972473,734.888977 866.636536,735.024109 
	C889.902100,735.272400 913.173401,735.406372 936.428589,736.070923 
	C959.913940,736.742126 983.383179,737.983276 1006.857971,739.010437 
	C1012.960144,739.277466 1019.074707,739.483887 1025.151978,740.054321 
	C1041.676147,741.605469 1058.182495,743.343750 1074.697388,744.994324 
	C1088.272583,746.351013 1101.885742,747.401611 1115.417358,749.103149 
	C1134.418945,751.492615 1153.397583,754.123047 1172.317627,757.087402 
	C1192.011353,760.172913 1211.705811,763.364929 1231.250366,767.260742 
	C1255.547607,772.103760 1279.854004,777.073792 1303.862061,783.151794 
	C1337.038574,791.550964 1370.091309,800.525391 1402.905518,810.238342 
	C1423.996948,816.481506 1444.744385,824.021301 1465.319458,831.839417 
	C1488.932007,840.811646 1512.402344,850.236633 1535.523315,860.400146 
	C1554.095337,868.564026 1572.207153,877.827820 1590.235596,887.158936 
	C1603.737183,894.147034 1616.780151,902.020935 1630.029419,909.496643 
	C1642.145142,916.332703 1655.151489,920.840637 1668.959961,921.864563 
	C1690.313965,923.447998 1710.440796,918.988464 1729.303955,906.929016 
M425.684967,963.072083 
	C422.431854,965.571350 418.911652,967.792114 415.968689,970.614746 
	C396.185699,989.588135 386.374176,1012.291260 389.936707,1040.123779 
	C392.162659,1057.514282 399.550659,1072.330566 411.476807,1084.886475 
	C421.977631,1095.941895 435.031860,1103.195923 449.738007,1106.613892 
	C457.967896,1108.526611 466.896576,1109.553345 475.199585,1108.508789 
	C486.256592,1107.117554 497.000641,1103.279907 507.897522,1100.567017 
	C530.359192,1094.974854 552.784058,1089.223145 575.313660,1083.917725 
	C607.312012,1076.382690 639.674927,1070.826416 672.327148,1066.970459 
	C691.696899,1064.683105 711.036316,1062.114502 730.432434,1060.082764 
	C743.703125,1058.692383 757.035706,1057.779419 770.362793,1057.068359 
	C787.390137,1056.159912 804.437500,1055.201538 821.480652,1055.113403 
	C844.912354,1054.992188 868.349121,1055.610718 891.781738,1056.026733 
	C901.214355,1056.194214 910.646729,1056.560669 920.069946,1057.024536 
	C931.281433,1057.576172 942.490601,1058.223267 953.686768,1059.024780 
	C965.838135,1059.894775 977.985168,1060.865356 990.112671,1062.017700 
	C1006.467285,1063.571777 1022.857727,1064.925537 1039.129395,1067.129272 
	C1057.597900,1069.630371 1076.003052,1072.694580 1094.343506,1076.022583 
	C1118.587646,1080.421753 1142.936523,1084.497437 1166.887207,1090.196777 
	C1199.052490,1097.851074 1231.071777,1106.272095 1262.790771,1115.598999 
	C1287.150146,1122.761841 1311.134155,1131.334717 1334.940308,1140.205811 
	C1356.002075,1148.054199 1376.814575,1156.675293 1397.318115,1165.887939 
	C1416.711548,1174.601807 1435.739746,1184.184448 1454.595215,1194.023804 
	C1471.979492,1203.095337 1489.292480,1212.414795 1505.955688,1222.725586 
	C1523.957886,1233.865112 1542.881348,1238.404907 1563.715820,1234.984497 
	C1583.826172,1231.683105 1600.090820,1221.331421 1612.449951,1205.695190 
	C1626.867676,1187.454590 1632.166016,1166.201538 1627.916016,1143.147583 
	C1624.033447,1122.086914 1613.797974,1104.431030 1595.452759,1093.039551 
	C1572.395386,1078.722046 1549.094482,1064.616455 1524.948853,1052.278076 
	C1495.128418,1037.039917 1464.651611,1022.965393 1433.862061,1009.780701 
	C1406.036743,997.865540 1377.670532,987.067688 1349.060669,977.171265 
	C1320.582275,967.320312 1291.619507,958.802246 1262.648804,950.464783 
	C1242.446167,944.650696 1221.948975,939.789673 1201.442505,935.121216 
	C1180.932495,930.451965 1160.278809,926.389893 1139.627319,922.374268 
	C1127.119629,919.942261 1114.515015,917.985291 1101.919922,916.033630 
	C1089.942749,914.177734 1077.924683,912.582520 1065.918457,910.916260 
	C1053.913940,909.250183 1041.925781,907.427673 1029.886353,906.062683 
	C1018.446167,904.765686 1006.948547,903.976685 995.476990,902.955017 
	C980.728577,901.641663 965.994202,900.138855 951.229004,899.055481 
	C938.548157,898.124878 925.837708,897.535339 913.130798,897.040771 
	C900.200623,896.537537 887.257385,896.013428 874.322266,896.067139 
	C847.718628,896.177612 821.115784,896.613708 794.514526,897.035034 
	C786.905823,897.155518 779.292480,897.526062 771.700745,898.059143 
	C754.285034,899.282104 736.879028,900.646179 719.473816,902.013367 
	C711.603271,902.631653 703.722961,903.214111 695.884399,904.131409 
	C683.200134,905.615723 670.546631,907.362488 657.880188,908.999390 
	C647.148132,910.386230 636.377014,911.527893 625.694458,913.226379 
	C613.113892,915.226685 600.588196,917.595947 588.078430,920.011169 
	C570.299988,923.443481 552.466980,926.667175 534.823792,930.707153 
	C514.338501,935.398010 493.930756,940.506042 473.682617,946.128784 
	C457.566376,950.604126 440.873779,953.702576 425.684967,963.072083 
M1313.929565,1310.441040 
	C1301.387085,1305.880005 1288.966187,1300.944092 1276.277832,1296.832886 
	C1246.996338,1287.345459 1217.718140,1277.802856 1188.177124,1269.177734 
	C1170.214233,1263.933105 1151.829224,1260.055786 1133.515259,1256.115723 
	C1116.128296,1252.375122 1098.638550,1249.042969 1081.097412,1246.109619 
	C1066.237915,1243.624756 1051.253418,1241.861938 1036.300171,1239.969116 
	C1019.712891,1237.869263 1003.122131,1235.747681 986.488281,1234.080688 
	C972.881714,1232.717163 959.221680,1231.774902 945.563538,1231.066406 
	C928.040100,1230.157715 910.496643,1229.174316 892.958740,1229.114258 
	C865.358459,1229.019775 837.754761,1229.616821 810.154297,1230.036621 
	C802.718384,1230.149536 795.278442,1230.529907 787.858398,1231.046509 
	C770.103333,1232.282715 752.356628,1233.642456 734.611450,1235.014893 
	C726.899109,1235.611328 719.180481,1236.201660 711.496948,1237.077881 
	C698.139648,1238.601440 684.810120,1240.367188 671.463623,1241.987549 
	C662.669434,1243.055542 653.828186,1243.798096 645.074829,1245.126709 
	C628.924927,1247.578003 612.808533,1250.261841 596.707397,1253.019165 
	C580.773865,1255.747559 564.841309,1258.505005 548.972229,1261.579590 
	C530.257690,1265.205200 511.632843,1269.291748 492.929993,1272.980103 
	C475.730103,1276.372070 459.883728,1281.909546 447.691162,1295.649658 
	C434.523438,1310.488770 429.515594,1327.825195 432.303955,1346.804932 
	C435.544830,1368.865234 448.179443,1385.246338 468.499359,1394.485962 
	C476.483612,1398.116577 485.687866,1400.101196 494.468506,1400.625488 
	C501.917175,1401.070190 509.588379,1398.495483 517.103760,1396.973755 
	C534.206299,1393.511230 551.258972,1389.803101 568.360352,1386.334961 
	C579.398804,1384.096313 590.452576,1381.894897 601.562073,1380.054688 
	C617.058289,1377.488037 632.611328,1375.263916 648.143066,1372.913086 
	C661.249268,1370.929321 674.326721,1368.708374 687.477417,1367.080444 
	C700.996826,1365.406982 714.585144,1364.279053 728.151123,1362.994507 
	C746.164429,1361.288818 764.168030,1359.432739 782.208496,1358.076904 
	C796.053650,1357.036255 809.951904,1356.062866 823.822205,1356.119751 
	C861.696533,1356.274902 899.604431,1354.655762 937.435852,1357.954346 
	C951.549500,1359.184937 965.715088,1359.819824 979.828796,1361.049927 
	C992.089355,1362.118408 1004.341370,1363.406616 1016.541138,1365.021362 
	C1035.179932,1367.488525 1053.853760,1369.849609 1072.359009,1373.124268 
	C1092.597900,1376.705811 1112.769165,1380.818726 1132.778320,1385.515747 
	C1166.738892,1393.488037 1200.273682,1403.088745 1233.025024,1415.149170 
	C1253.355591,1422.635620 1273.642578,1430.354492 1293.472778,1439.054810 
	C1313.816650,1447.980225 1333.775391,1457.849121 1353.537476,1468.014771 
	C1369.659302,1476.307617 1385.343994,1485.472412 1401.034790,1494.574219 
	C1414.868530,1502.598877 1428.941284,1508.390503 1445.593506,1506.154663 
	C1459.592651,1504.275146 1471.935425,1499.164185 1481.871704,1489.437012 
	C1497.292480,1474.340698 1504.645996,1456.052734 1501.024536,1434.140381 
	C1498.078613,1416.315918 1490.008057,1401.301636 1474.395996,1391.973145 
	C1449.428833,1377.055054 1424.328613,1362.210205 1398.385254,1349.116455 
	C1370.994385,1335.292236 1342.550293,1323.555298 1313.929565,1310.441040 
z"/>
<path fill="#000000" opacity="1.000000" stroke="none" 
	d="
M1728.945068,907.007324 
	C1710.440796,918.988464 1690.313965,923.447998 1668.959961,921.864563 
	C1655.151489,920.840637 1642.145142,916.332703 1630.029419,909.496643 
	C1616.780151,902.020935 1603.737183,894.147034 1590.235596,887.158936 
	C1572.207153,877.827820 1554.095337,868.564026 1535.523315,860.400146 
	C1512.402344,850.236633 1488.932007,840.811646 1465.319458,831.839417 
	C1444.744385,824.021301 1423.996948,816.481506 1402.905518,810.238342 
	C1370.091309,800.525391 1337.038574,791.550964 1303.862061,783.151794 
	C1279.854004,777.073792 1255.547607,772.103760 1231.250366,767.260742 
	C1211.705811,763.364929 1192.011353,760.172913 1172.317627,757.087402 
	C1153.397583,754.123047 1134.418945,751.492615 1115.417358,749.103149 
	C1101.885742,747.401611 1088.272583,746.351013 1074.697388,744.994324 
	C1058.182495,743.343750 1041.676147,741.605469 1025.151978,740.054321 
	C1019.074707,739.483887 1012.960144,739.277466 1006.857971,739.010437 
	C983.383179,737.983276 959.913940,736.742126 936.428589,736.070923 
	C913.173401,735.406372 889.902100,735.272400 866.636536,735.024109 
	C853.972473,734.888977 841.299866,734.754395 828.641724,735.058411 
	C810.259949,735.499878 791.879211,736.162720 773.514221,737.062256 
	C758.689880,737.788391 743.875671,738.834961 729.082031,740.045837 
	C710.884033,741.535400 692.682312,743.075439 674.537170,745.088867 
	C656.629028,747.075989 638.742920,749.376770 620.932495,752.098145 
	C602.053040,754.982788 583.204346,758.171326 564.468018,761.865112 
	C538.701233,766.944946 512.971313,772.271973 487.384369,778.180725 
	C472.331268,781.656921 457.565002,786.393250 442.706299,790.689392 
	C411.597351,799.683960 383.143921,794.374634 357.389221,774.844910 
	C337.408691,759.693604 325.254639,739.442749 321.233673,714.907288 
	C316.984680,688.980835 323.248993,665.111755 338.715149,643.792114 
	C353.680176,623.163269 374.392303,611.807495 398.793549,605.885864 
	C419.213806,600.930298 439.307220,594.615417 459.753082,589.780884 
	C481.490234,584.640930 503.436035,580.353271 525.357788,576.033752 
	C543.451111,572.468506 561.602112,569.153137 579.803467,566.193542 
	C592.902771,564.063538 606.129395,562.720032 619.294617,560.990784 
	C631.631775,559.370178 643.946716,557.566895 656.302490,556.106140 
	C664.302551,555.160339 672.362183,554.726807 680.388367,553.990662 
	C694.307129,552.713989 708.217773,551.348145 722.138000,550.088379 
	C727.223999,549.628052 732.323730,549.283142 737.424316,549.027832 
	C745.523926,548.622375 753.628418,548.306396 761.732788,548.005859 
	C780.271912,547.318420 798.807373,546.345520 817.353088,546.062256 
	C853.951538,545.503418 890.555420,545.249084 927.158081,545.061096 
	C936.752808,545.011780 946.355896,545.565918 955.946716,546.021423 
	C975.594360,546.954590 995.243225,547.890686 1014.878052,549.054199 
	C1028.034912,549.833801 1041.183105,550.848999 1054.308472,552.050293 
	C1066.401855,553.157104 1078.452881,554.720764 1090.535400,555.957092 
	C1101.330322,557.061646 1112.171143,557.759888 1122.940796,559.059814 
	C1137.247925,560.786804 1151.503784,562.936157 1165.784912,564.881287 
	C1178.456177,566.607056 1191.159180,568.121399 1203.797852,570.057922 
	C1218.020386,572.237061 1232.221313,574.597229 1246.368286,577.220154 
	C1262.887207,580.282959 1279.361328,583.600708 1295.811035,587.019470 
	C1311.295410,590.237732 1326.820435,593.341370 1342.153931,597.187561 
	C1371.544067,604.559387 1400.974731,611.854492 1430.079346,620.253113 
	C1455.131836,627.482422 1480.002197,635.520630 1504.503784,644.435669 
	C1534.943604,655.511414 1565.186768,667.229004 1595.017944,679.844360 
	C1620.905396,690.791931 1646.421265,702.743164 1671.499878,715.438843 
	C1691.599854,725.614075 1711.108276,737.065918 1730.312500,748.872986 
	C1751.573975,761.944885 1764.502441,781.674744 1769.849609,805.796997 
	C1777.254883,839.202942 1768.943359,868.684631 1744.999634,893.358948 
	C1740.201660,898.303406 1734.557739,902.427002 1728.945068,907.007324 
z"/>
<path fill="#000000" opacity="1.000000" stroke="none" 
	d="
M426.045258,962.993164 
	C440.873779,953.702576 457.566376,950.604126 473.682617,946.128784 
	C493.930756,940.506042 514.338501,935.398010 534.823792,930.707153 
	C552.466980,926.667175 570.299988,923.443481 588.078430,920.011169 
	C600.588196,917.595947 613.113892,915.226685 625.694458,913.226379 
	C636.377014,911.527893 647.148132,910.386230 657.880188,908.999390 
	C670.546631,907.362488 683.200134,905.615723 695.884399,904.131409 
	C703.722961,903.214111 711.603271,902.631653 719.473816,902.013367 
	C736.879028,900.646179 754.285034,899.282104 771.700745,898.059143 
	C779.292480,897.526062 786.905823,897.155518 794.514526,897.035034 
	C821.115784,896.613708 847.718628,896.177612 874.322266,896.067139 
	C887.257385,896.013428 900.200623,896.537537 913.130798,897.040771 
	C925.837708,897.535339 938.548157,898.124878 951.229004,899.055481 
	C965.994202,900.138855 980.728577,901.641663 995.476990,902.955017 
	C1006.948547,903.976685 1018.446167,904.765686 1029.886353,906.062683 
	C1041.925781,907.427673 1053.913940,909.250183 1065.918457,910.916260 
	C1077.924683,912.582520 1089.942749,914.177734 1101.919922,916.033630 
	C1114.515015,917.985291 1127.119629,919.942261 1139.627319,922.374268 
	C1160.278809,926.389893 1180.932495,930.451965 1201.442505,935.121216 
	C1221.948975,939.789673 1242.446167,944.650696 1262.648804,950.464783 
	C1291.619507,958.802246 1320.582275,967.320312 1349.060669,977.171265 
	C1377.670532,987.067688 1406.036743,997.865540 1433.862061,1009.780701 
	C1464.651611,1022.965393 1495.128418,1037.039917 1524.948853,1052.278076 
	C1549.094482,1064.616455 1572.395386,1078.722046 1595.452759,1093.039551 
	C1613.797974,1104.431030 1624.033447,1122.086914 1627.916016,1143.147583 
	C1632.166016,1166.201538 1626.867676,1187.454590 1612.449951,1205.695190 
	C1600.090820,1221.331421 1583.826172,1231.683105 1563.715820,1234.984497 
	C1542.881348,1238.404907 1523.957886,1233.865112 1505.955688,1222.725586 
	C1489.292480,1212.414795 1471.979492,1203.095337 1454.595215,1194.023804 
	C1435.739746,1184.184448 1416.711548,1174.601807 1397.318115,1165.887939 
	C1376.814575,1156.675293 1356.002075,1148.054199 1334.940308,1140.205811 
	C1311.134155,1131.334717 1287.150146,1122.761841 1262.790771,1115.598999 
	C1231.071777,1106.272095 1199.052490,1097.851074 1166.887207,1090.196777 
	C1142.936523,1084.497437 1118.587646,1080.421753 1094.343506,1076.022583 
	C1076.003052,1072.694580 1057.597900,1069.630371 1039.129395,1067.129272 
	C1022.857727,1064.925537 1006.467285,1063.571777 990.112671,1062.017700 
	C977.985168,1060.865356 965.838135,1059.894775 953.686768,1059.024780 
	C942.490601,1058.223267 931.281433,1057.576172 920.069946,1057.024536 
	C910.646729,1056.560669 901.214355,1056.194214 891.781738,1056.026733 
	C868.349121,1055.610718 844.912354,1054.992188 821.480652,1055.113403 
	C804.437500,1055.201538 787.390137,1056.159912 770.362793,1057.068359 
	C757.035706,1057.779419 743.703125,1058.692383 730.432434,1060.082764 
	C711.036316,1062.114502 691.696899,1064.683105 672.327148,1066.970459 
	C639.674927,1070.826416 607.312012,1076.382690 575.313660,1083.917725 
	C552.784058,1089.223145 530.359192,1094.974854 507.897522,1100.567017 
	C497.000641,1103.279907 486.256592,1107.117554 475.199585,1108.508789 
	C466.896576,1109.553345 457.967896,1108.526611 449.738007,1106.613892 
	C435.031860,1103.195923 421.977631,1095.941895 411.476807,1084.886475 
	C399.550659,1072.330566 392.162659,1057.514282 389.936707,1040.123779 
	C386.374176,1012.291260 396.185699,989.588135 415.968689,970.614746 
	C418.911652,967.792114 422.431854,965.571350 426.045258,962.993164 
z"/>
<path fill="#000000" opacity="1.000000" stroke="none" 
	d="
M1314.248047,1310.673828 
	C1342.550293,1323.555298 1370.994385,1335.292236 1398.385254,1349.116455 
	C1424.328613,1362.210205 1449.428833,1377.055054 1474.395996,1391.973145 
	C1490.008057,1401.301636 1498.078613,1416.315918 1501.024536,1434.140381 
	C1504.645996,1456.052734 1497.292480,1474.340698 1481.871704,1489.437012 
	C1471.935425,1499.164185 1459.592651,1504.275146 1445.593506,1506.154663 
	C1428.941284,1508.390503 1414.868530,1502.598877 1401.034790,1494.574219 
	C1385.343994,1485.472412 1369.659302,1476.307617 1353.537476,1468.014771 
	C1333.775391,1457.849121 1313.816650,1447.980225 1293.472778,1439.054810 
	C1273.642578,1430.354492 1253.355591,1422.635620 1233.025024,1415.149170 
	C1200.273682,1403.088745 1166.738892,1393.488037 1132.778320,1385.515747 
	C1112.769165,1380.818726 1092.597900,1376.705811 1072.359009,1373.124268 
	C1053.853760,1369.849609 1035.179932,1367.488525 1016.541138,1365.021362 
	C1004.341370,1363.406616 992.089355,1362.118408 979.828796,1361.049927 
	C965.715088,1359.819824 951.549500,1359.184937 937.435852,1357.954346 
	C899.604431,1354.655762 861.696533,1356.274902 823.822205,1356.119751 
	C809.951904,1356.062866 796.053650,1357.036255 782.208496,1358.076904 
	C764.168030,1359.432739 746.164429,1361.288818 728.151123,1362.994507 
	C714.585144,1364.279053 700.996826,1365.406982 687.477417,1367.080444 
	C674.326721,1368.708374 661.249268,1370.929321 648.143066,1372.913086 
	C632.611328,1375.263916 617.058289,1377.488037 601.562073,1380.054688 
	C590.452576,1381.894897 579.398804,1384.096313 568.360352,1386.334961 
	C551.258972,1389.803101 534.206299,1393.511230 517.103760,1396.973755 
	C509.588379,1398.495483 501.917175,1401.070190 494.468506,1400.625488 
	C485.687866,1400.101196 476.483612,1398.116577 468.499359,1394.485962 
	C448.179443,1385.246338 435.544830,1368.865234 432.303955,1346.804932 
	C429.515594,1327.825195 434.523438,1310.488770 447.691162,1295.649658 
	C459.883728,1281.909546 475.730103,1276.372070 492.929993,1272.980103 
	C511.632843,1269.291748 530.257690,1265.205200 548.972229,1261.579590 
	C564.841309,1258.505005 580.773865,1255.747559 596.707397,1253.019165 
	C612.808533,1250.261841 628.924927,1247.578003 645.074829,1245.126709 
	C653.828186,1243.798096 662.669434,1243.055542 671.463623,1241.987549 
	C684.810120,1240.367188 698.139648,1238.601440 711.496948,1237.077881 
	C719.180481,1236.201660 726.899109,1235.611328 734.611450,1235.014893 
	C752.356628,1233.642456 770.103333,1232.282715 787.858398,1231.046509 
	C795.278442,1230.529907 802.718384,1230.149536 810.154297,1230.036621 
	C837.754761,1229.616821 865.358459,1229.019775 892.958740,1229.114258 
	C910.496643,1229.174316 928.040100,1230.157715 945.563538,1231.066406 
	C959.221680,1231.774902 972.881714,1232.717163 986.488281,1234.080688 
	C1003.122131,1235.747681 1019.712891,1237.869263 1036.300171,1239.969116 
	C1051.253418,1241.861938 1066.237915,1243.624756 1081.097412,1246.109619 
	C1098.638550,1249.042969 1116.128296,1252.375122 1133.515259,1256.115723 
	C1151.829224,1260.055786 1170.214233,1263.933105 1188.177124,1269.177734 
	C1217.718140,1277.802856 1246.996338,1287.345459 1276.277832,1296.832886 
	C1288.966187,1300.944092 1301.387085,1305.880005 1314.248047,1310.673828 
z"/>
</svg>