<svg version="1.1" id="Layer_1" xmlns="http://www.w3.org/2000/svg" xmlns:xlink="http://www.w3.org/1999/xlink" x="0px" y="0px"
	 width="100%" viewBox="0 0 700 599">
<path fill="#010101" opacity="1.000000" stroke="none" 
	d="
M587.851807,47.125645 
	C609.870483,64.337654 620.976379,86.603699 620.986328,114.230865 
	C621.023010,216.387222 621.025024,318.543610 620.988953,420.699982 
	C620.974854,460.699066 594.872131,493.229797 556.043457,502.113464 
	C554.481201,502.470886 552.476929,504.448822 552.119995,506.002808 
	C543.187195,544.892029 510.719727,570.973816 470.738708,570.988464 
	C368.582336,571.025818 266.425964,571.033264 164.269592,570.986511 
	C117.057396,570.964905 81.029236,534.982056 81.011185,487.860504 
	C80.971909,385.370819 80.961105,282.881134 81.018631,180.391510 
	C81.040611,141.237381 107.610542,108.373352 145.864624,100.088776 
	C148.680313,99.478989 149.535156,98.296478 150.107254,95.632179 
	C158.176804,58.051533 191.248505,31.068632 229.629608,31.032759 
	C332.785797,30.936342 435.942108,30.984642 539.098389,31.013958 
	C556.960693,31.019035 573.121277,36.389378 587.851807,47.125645 
M121.951134,428.500000 
	C121.951225,447.830017 121.943535,467.160034 121.953293,486.490051 
	C121.966599,512.845642 139.040039,530.023560 165.269028,530.026123 
	C266.584381,530.036072 367.899719,530.034546 469.215088,530.027283 
	C495.803497,530.025391 512.961487,512.885498 512.963196,486.331604 
	C512.969482,385.182892 512.969360,284.034180 512.963318,182.885468 
	C512.961792,156.312027 495.767670,139.029556 469.330475,139.027969 
	C368.348389,139.021927 267.364838,139.321121 166.385239,138.822464 
	C140.369247,138.694000 121.519264,158.060898 121.717102,183.545105 
	C122.348343,264.859100 121.951149,346.181091 121.951134,428.500000 
M449.500000,71.951225 
	C377.686005,71.951233 305.871979,71.950630 234.057983,71.954002 
	C231.725525,71.954117 229.389282,71.916634 227.061218,72.029343 
	C211.742554,72.770988 196.358780,84.247475 192.375244,98.068375 
	C194.250397,98.068375 196.056885,98.068367 197.863373,98.068367 
	C288.172241,98.068420 378.481140,98.042587 468.789917,98.127296 
	C474.758209,98.132896 480.843475,98.383911 486.674652,99.533569 
	C526.869873,107.458321 553.870728,140.383362 553.900208,181.446518 
	C553.965332,272.255188 553.921082,363.063965 553.921326,453.872681 
	C553.921387,455.788605 553.921387,457.704529 553.921387,459.789551 
	C570.004272,453.929199 580.020081,438.971497 580.022827,421.176147 
	C580.038513,318.870544 580.044189,216.564911 580.019287,114.259300 
	C580.013245,89.420860 562.441223,71.983368 537.476440,71.958626 
	C508.484314,71.929901 479.492157,71.951477 449.500000,71.951225 
z"/>
<path fill="#FFFFFF" opacity="1.000000" stroke="none" 
	d="
M121.951134,428.000000 
	C121.951149,346.181091 122.348343,264.859100 121.717102,183.545105 
	C121.519264,158.060898 140.369247,138.694000 166.385239,138.822464 
	C267.364838,139.321121 368.348389,139.021927 469.330475,139.027969 
	C495.767670,139.029556 512.961792,156.312027 512.963318,182.885468 
	C512.969360,284.034180 512.969482,385.182892 512.963196,486.331604 
	C512.961487,512.885498 495.803497,530.025391 469.215088,530.027283 
	C367.899719,530.034546 266.584381,530.036072 165.269028,530.026123 
	C139.040039,530.023560 121.966599,512.845642 121.953293,486.490051 
	C121.943535,467.160034 121.951225,447.830017 121.951134,428.000000 
M217.894211,245.399521 
	C189.691681,277.956543 178.885147,315.529999 185.939270,358.011261 
	C198.151749,431.556946 272.236847,481.487915 344.856750,465.320374 
	C416.668518,449.332703 461.008057,383.341736 448.915222,310.449036 
	C438.865662,249.872650 382.975525,201.894684 321.573853,200.980865 
	C280.649658,200.371811 246.295044,215.024017 217.894211,245.399521 
z"/>
<path fill="#FFFFFF" opacity="1.000000" stroke="none" 
	d="
M450.000000,71.951225 
	C479.492157,71.951477 508.484314,71.929901 537.476440,71.958626 
	C562.441223,71.983368 580.013245,89.420860 580.019287,114.259300 
	C580.044189,216.564911 580.038513,318.870544 580.022827,421.176147 
	C580.020081,438.971497 570.004272,453.929199 553.921387,459.789551 
	C553.921387,457.704529 553.921387,455.788605 553.921326,453.872681 
	C553.921082,363.063965 553.965332,272.255188 553.900208,181.446518 
	C553.870728,140.383362 526.869873,107.458321 486.674652,99.533569 
	C480.843475,98.383911 474.758209,98.132896 468.789917,98.127296 
	C378.481140,98.042587 288.172241,98.068420 197.863373,98.068367 
	C196.056885,98.068367 194.250397,98.068375 192.375244,98.068375 
	C196.358780,84.247475 211.742554,72.770988 227.061218,72.029343 
	C229.389282,71.916634 231.725525,71.954117 234.057983,71.954002 
	C305.871979,71.950630 377.686005,71.951233 450.000000,71.951225 
z"/>
<path fill="#010101" opacity="1.000000" stroke="none" 
	d="
M218.123611,245.128967 
	C246.295044,215.024017 280.649658,200.371811 321.573853,200.980865 
	C382.975525,201.894684 438.865662,249.872650 448.915222,310.449036 
	C461.008057,383.341736 416.668518,449.332703 344.856750,465.320374 
	C272.236847,481.487915 198.151749,431.556946 185.939270,358.011261 
	C178.885147,315.529999 189.691681,277.956543 218.123611,245.128967 
M262.616943,275.382996 
	C262.486633,277.538330 262.244232,279.693634 262.242767,281.849030 
	C262.219177,316.986420 262.217072,352.123840 262.229767,387.261230 
	C262.236359,405.495667 271.733917,410.942749 287.570648,401.801239 
	C318.069611,384.196075 348.562225,366.579834 379.053497,348.961334 
	C394.623840,339.964508 394.569122,329.120911 378.903595,320.072662 
	C348.552704,302.542236 318.196930,285.020264 287.836517,267.506317 
	C285.968750,266.428864 284.109467,265.295563 282.132874,264.454834 
	C272.392822,260.311951 265.168823,264.112946 262.616943,275.382996 
z"/>
<path fill="#FDFDFD" opacity="1.000000" stroke="none" 
	d="
M262.699280,274.966553 
	C265.168823,264.112946 272.392822,260.311951 282.132874,264.454834 
	C284.109467,265.295563 285.968750,266.428864 287.836517,267.506317 
	C318.196930,285.020264 348.552704,302.542236 378.903595,320.072662 
	C394.569122,329.120911 394.623840,339.964508 379.053497,348.961334 
	C348.562225,366.579834 318.069611,384.196075 287.570648,401.801239 
	C271.733917,410.942749 262.236359,405.495667 262.229767,387.261230 
	C262.217072,352.123840 262.219177,316.986420 262.242767,281.849030 
	C262.244232,279.693634 262.486633,277.538330 262.699280,274.966553 
z"/>
</svg>